<svg viewBox="0 0 21 20" xmlns="http://www.w3.org/2000/svg">
<path d="M19 5.70002C18.1 4.20002 17 3.00002 15.5 2.20002C14 1.30002 12.4 0.900024 10.6 0.900024C8.79999 0.900024 7.19999 1.30002 5.69999 2.20002C4.19999 3.00002 3.09999 4.20002 2.19999 5.70002C1.29999 7.20002 0.899994 8.80003 0.899994 10.6C0.899994 12.7 1.49999 14.6 2.69999 16.3C3.99999 18 5.59999 19.1 7.49999 19.8C7.69999 19.8 7.89999 19.8 7.99999 19.7C8.09999 19.6 8.19999 19.5 8.19999 19.3C8.19999 19.3 8.19999 19 8.19999 18.6C8.19999 18.2 8.19999 17.8 8.19999 17.5L7.89999 17.6C7.69999 17.6 7.49999 17.6 7.19999 17.6C6.89999 17.6 6.59999 17.6 6.29999 17.5C5.99999 17.4 5.69999 17.3 5.49999 17.1C5.19999 16.9 5.09999 16.6 4.89999 16.3L4.79999 16C4.69999 15.8 4.59999 15.6 4.39999 15.4C4.19999 15.2 3.99999 15 3.79999 14.9L3.69999 14.8C3.59999 14.8 3.59999 14.7 3.49999 14.6C3.39999 14.5 3.39999 14.5 3.39999 14.4C3.39999 14.3 3.39999 14.3 3.49999 14.3C3.59999 14.3 3.69999 14.2 3.89999 14.2H4.19999C4.39999 14.2 4.59999 14.3 4.79999 14.5C4.99999 14.7 5.29999 14.9 5.39999 15.2C5.59999 15.5 5.79999 15.8 6.09999 16C6.39999 16.2 6.59999 16.3 6.89999 16.3C7.19999 16.3 7.39999 16.3 7.59999 16.2C7.79999 16.2 7.99999 16.1 8.19999 16C8.29999 15.4 8.49999 15 8.79999 14.7C8.29999 14.6 7.89999 14.6 7.49999 14.5C7.09999 14.4 6.69999 14.2 6.29999 14C5.89999 13.8 5.59999 13.5 5.29999 13.2C4.99999 12.9 4.79999 12.4 4.59999 11.9C4.39999 11.4 4.29999 10.7 4.29999 10C4.29999 9.00002 4.59999 8.10002 5.29999 7.40002C5.09999 6.70002 5.09999 5.80002 5.49999 4.90002C5.69999 4.80002 6.09999 4.90002 6.59999 5.10002C7.09999 5.30002 7.39999 5.50002 7.69999 5.60002C7.89999 5.70002 7.99999 5.80002 8.19999 5.90002C8.99999 5.70002 9.79999 5.60002 10.6 5.60002C11.4 5.60002 12.2 5.70002 13 5.90002L13.5 5.60002C13.8 5.40002 14.2 5.20002 14.7 5.00002C15.1 4.80002 15.5 4.80002 15.7 4.90002C16.1 5.90002 16.1 6.70002 15.8 7.50002C16.5 8.20002 16.8 9.10003 16.8 10.1C16.8 10.8 16.7 11.4 16.5 12C16.3 12.6 16.1 13 15.8 13.3C15.5 13.6 15.2 13.9 14.8 14.1C14.4 14.3 14 14.5 13.6 14.6C13.2 14.7 12.8 14.8 12.3 14.8C12.7 15.2 13 15.8 13 16.6V19.3C13 19.5 13.1 19.6 13.2 19.7C13.3 19.8 13.5 19.8 13.7 19.8C15.7 19.2 17.2 18 18.5 16.3C19.7 14.6 20.3 12.7 20.3 10.6C20.3 8.80003 19.8 7.20002 19 5.70002Z" />
<defs>
<linearGradient id="GithubGradient" x1="0.897494" y1="10.3362" x2="20.2818" y2="10.3362" gradientUnits="userSpaceOnUse">
<stop stop-color="#1245C6"/>
<stop offset="1" stop-color="#9909B7"/>
</linearGradient>
</defs>
</svg>
