<svg viewBox="0 0 12 12" xmlns="http://www.w3.org/2000/svg">
<path d="M10.225 10.225H8.447V7.44001C8.447 6.77601 8.435 5.92101 7.522 5.92101C6.596 5.92101 6.454 6.64501 6.454 7.39101V10.225H4.676V4.49801H6.383V5.28101H6.407C6.755 4.68701 7.403 4.33101 8.091 4.35601C9.893 4.35601 10.226 5.54101 10.226 7.08401L10.225 10.224V10.225ZM2.67 3.71501C2.39687 3.7137 2.13529 3.60469 1.94207 3.41165C1.74884 3.21861 1.63958 2.95714 1.638 2.68401C1.638 2.11801 2.104 1.65201 2.67 1.65201C3.236 1.65201 3.701 2.11801 3.702 2.68401C3.702 3.25001 3.236 3.71501 2.67 3.71501ZM3.559 10.225H1.779V4.49801H3.559V10.225ZM11.11 1.48632e-05H0.885C0.653151 -0.00133177 0.430137 0.0888745 0.264423 0.251031C0.0987089 0.413188 0.00368466 0.634191 0 0.866015V11.134C0.00368466 11.3658 0.0987089 11.5868 0.264423 11.749C0.430137 11.9112 0.653151 12.0014 0.885 12H11.111C11.3434 12.0019 11.5671 11.912 11.7336 11.7498C11.9001 11.5877 11.9958 11.3664 12 11.134V0.865015C11.9958 0.632842 11.9 0.411743 11.7335 0.249904C11.5669 0.0880636 11.3432 -0.00139825 11.111 0.00101479L11.11 1.48632e-05Z" fill="black"/>
</svg>
